<svg height="461pt" viewBox="-102 0 461 461.784" width="461pt" xmlns="http://www.w3.org/2000/svg" xmlns:xlink="http://www.w3.org/1999/xlink"><linearGradient id="linear0" gradientUnits="userSpaceOnUse" x1="3.832" x2="253.08" y1="15.036" y2="446.744"><stop offset="0" stop-color="#fe9001"/><stop offset="1" stop-color="#a11d5b"/></linearGradient><path d="m.390625 389.21875c0-3.863281 3.136719-7 7-7 3.867187 0 7 3.136719 7 7v32.300781c.015625 14.496094 11.761719 26.242188 26.257813 26.261719h175.597656c14.496094-.019531 26.242187-11.765625 26.257812-26.261719v-320.042969c0-3.867187 3.132813-7 7-7 3.867188 0 7 3.132813 7 7v320.046876c-.023437 22.222656-18.03125 40.234374-40.257812 40.261718h-175.597656c-22.222657-.027344-40.230469-18.039062-40.257813-40.261718zm0-75.429688c0 3.863282 3.136719 7 7 7 3.867187 0 7-3.136718 7-7v-273.53125c.015625-14.496093 11.761719-26.242187 26.257813-26.257812h175.597656c14.496094.015625 26.242187 11.761719 26.257812 26.257812v30.964844c0 3.867188 3.132813 7 7 7 3.867188 0 7-3.132812 7-7v-30.964844c-.027344-22.21875-18.027344-40.226562-40.242187-40.257812h-175.601563c-22.226562.0195312-40.242187 18.03125-40.269531 40.257812zm0 41.867188c0 3.867188 3.136719 7 7 7 3.867187 0 7-3.132812 7-7v-19.519531c0-3.867188-3.132813-7-7-7-3.863281 0-7 3.132812-7 7zm128.066406 79.53125c25.414063.003906 48.015625-16.171875 56.203125-40.230469 8.191406-24.0625.152344-50.667969-19.988281-66.167969v-179.257812c0-3.867188-3.132813-7-7-7s-7 3.132812-7 7v182.84375c0 2.328125 1.15625 4.503906 3.089844 5.804688 16.5625 11.132812 23.902343 31.785156 18.082031 50.875-5.820312 19.089843-23.429688 32.132812-43.386719 32.132812s-37.570312-13.042969-43.390625-32.132812c-5.820312-19.089844 1.523438-39.742188 18.085938-50.875 1.929687-1.300782 3.089844-3.476563 3.085937-5.804688v-212.953125c.164063-12.152344 10.0625-21.917969 22.214844-21.917969s22.050781 9.765625 22.214844 21.917969c0 3.863281 3.132812 7 7 7 3.867187 0 7-3.136719 7-7-.207031-19.855469-16.359375-35.835937-36.214844-35.835937-19.851563 0-36.003906 15.980468-36.214844 35.835937v209.359375c-20.144531 15.5-28.1875 42.109375-19.996093 66.171875 8.1875 24.066406 30.792968 40.242187 56.214843 40.234375zm7-213.574219v121.40625c16.785157 3.582031 28.164063 19.257813 26.363281 36.328125-1.800781 17.070313-16.199218 30.03125-33.363281 30.03125-17.167969 0-31.5625-12.960937-33.363281-30.03125-1.800781-17.070312 9.574219-32.746094 26.363281-36.328125v-121.402343c0-3.867188 3.132813-7 7-7 3.863281 0 7 3.132812 7 7zm-7 134.671875c-10.792969 0-19.542969 8.75-19.542969 19.542969.003907 10.792969 8.75 19.542969 19.542969 19.542969s19.542969-8.746094 19.546875-19.539063c-.011718-10.789062-8.757812-19.535156-19.546875-19.546875zm-79.101562-250.566406h19.019531c3.867188 0 7-3.132812 7-7 0-3.863281-3.132812-7-7-7h-19.019531c-3.867188 0-7 3.136719-7 7 0 3.867188 3.132812 7 7 7zm0 30.726562h19.019531c3.867188 0 7-3.136718 7-7 0-3.867187-3.132812-7-7-7h-19.019531c-3.867188 0-7 3.132813-7 7 0 3.863282 3.132812 7 7 7zm0 30.722657h19.019531c3.867188 0 7-3.132813 7-7 0-3.867188-3.132812-7-7-7h-19.019531c-3.867188 0-7 3.132812-7 7 0 3.867187 3.132812 7 7 7zm0 30.722656h19.019531c3.867188 0 7-3.132813 7-7 0-3.863281-3.132812-7-7-7h-19.019531c-3.867188 0-7 3.136719-7 7 0 3.867187 3.132812 7 7 7zm0 30.730469h19.019531c3.867188 0 7-3.136719 7-7 0-3.867188-3.132812-7-7-7h-19.019531c-3.867188 0-7 3.132812-7 7 0 3.863281 3.132812 7 7 7zm0 30.722656h19.019531c3.867188 0 7-3.132812 7-7s-3.132812-7-7-7h-19.019531c-3.867188 0-7 3.132812-7 7s3.132812 7 7 7zm0 30.722656h19.019531c3.867188 0 7-3.132812 7-7 0-3.863281-3.132812-7-7-7h-19.019531c-3.867188 0-7 3.136719-7 7 0 3.867188 3.132812 7 7 7zm0 30.730469h19.019531c3.867188 0 7-3.136719 7-7 0-3.867187-3.132812-7-7-7h-19.019531c-3.867188 0-7 3.132813-7 7 0 3.863281 3.132812 7 7 7zm151.273437-197.75c-13.441406 0-24.332031-10.894531-24.332031-24.332031s10.894531-24.332032 24.332031-24.332032c13.441406.003907 24.332032 10.898438 24.332032 24.335938-.015626 13.433594-10.902344 24.316406-24.332032 24.328125zm0-14c5.707032 0 10.332032-4.625 10.332032-10.332031 0-5.707032-4.628907-10.332032-10.335938-10.332032-5.707031.003907-10.332031 4.628907-10.328125 10.335938.007813 5.703125 4.628906 10.324219 10.332031 10.328125zm-112.273437-72.828125c.296875-8.226562 7.054687-14.746094 15.289062-14.746094s14.992188 6.519532 15.292969 14.746094c-.300781 8.230469-7.058594 14.75-15.292969 14.75s-14.992187-6.519531-15.289062-14.75zm7.246093 0c.132813 4.402344 3.785157 7.878906 8.191407 7.789062 4.402343-.089843 7.914062-3.710937 7.867187-8.117187-.046875-4.402344-3.632812-7.949219-8.035156-7.945313-4.472656.140626-8.023438 3.800782-8.027344 8.273438zm53.65625-.714844c4.113282.070313 7.972657 2.003906 10.5 5.253906l8.867188-7.878906c-5.035156-5.328125-12.039062-8.355468-19.367188-8.371094-14.109374-.097656-25.722656 11.074219-26.167968 25.175782.441406 14.117187 12.042968 25.3125 26.167968 25.253906 7.34375-.007812 14.359376-3.066406 19.367188-8.441406l-8.800781-7.800782c-2.554688 3.25-6.433594 5.179688-10.566407 5.25-7.667968-.257812-13.753906-6.550781-13.753906-14.222656s6.085938-13.960937 13.753906-14.21875zm0 0" fill="url(#linear0)"/></svg>